<?xml version="1.0" encoding="utf-8"?>
<!-- Generator: Adobe Illustrator 16.0.0, SVG Export Plug-In . SVG Version: 6.00 Build 0)  -->
<!DOCTYPE svg PUBLIC "-//W3C//DTD SVG 1.1//EN" "http://www.w3.org/Graphics/SVG/1.1/DTD/svg11.dtd">
<svg version="1.1" id="Layer_1" xmlns="http://www.w3.org/2000/svg" xmlns:xlink="http://www.w3.org/1999/xlink" x="0px" y="0px"
	 width="51.25px" height="62px" viewBox="0 0 51.25 62" enable-background="new 0 0 51.25 62" xml:space="preserve">
<g>
	<path fill-rule="evenodd" clip-rule="evenodd" d="M1.653,46.932c0-10.479,0-20.958,0-31.437c0.126-0.262,0.313-0.513,0.369-0.788
		c0.76-3.81,4.11-6.647,8.001-6.656c10.344-0.022,20.689,0.052,31.033-0.034c4.83-0.041,8.581,4.005,8.541,8.511
		c-0.086,9.81-0.022,19.621-0.022,29.431c0,0.333-0.016,0.667-0.034,1c-0.224,3.994-3.77,7.563-7.761,7.584
		c-10.645,0.057-21.29,0.059-31.934,0.001c-3.241-0.019-5.59-1.726-7.07-4.559C2.277,49.031,2.02,47.953,1.653,46.932z
		 M27.497,41.007c-0.387-1.085-0.707-1.986-1.029-2.885c-2.013-5.615-4.037-11.226-6.027-16.848
		c-0.215-0.608-0.511-0.846-1.151-0.822c-1.132,0.041-2.269,0.057-3.399-0.008c-0.804-0.046-1.147,0.219-1.195,1.035
		c-0.028,0.486-0.229,0.969-0.394,1.439c-1.895,5.443-3.797,10.883-5.694,16.326c-0.18,0.515-0.332,1.04-0.558,1.753
		c1.229,0,2.254-0.036,3.275,0.013c0.647,0.03,0.982-0.22,1.162-0.819c0.325-1.085,0.689-2.159,1.028-3.24
		c0.174-0.555,0.437-0.916,1.118-0.904c1.933,0.032,3.868,0.021,5.802-0.002c0.595-0.008,0.917,0.227,1.093,0.79
		c0.359,1.143,0.72,2.29,1.17,3.397c0.132,0.324,0.559,0.718,0.876,0.74C24.792,41.058,26.021,41.007,27.497,41.007z M41.191,37.048
		c-1.724,0.071-3.281,0.246-4.825,0.169c-1.499-0.076-2.757-0.754-3.392-2.246c-0.447-1.051-0.267-1.318,0.849-1.314
		c2.6,0.011,5.199,0.017,7.8,0.024c0.44,0.001,0.987,0.041,0.908-0.6c-0.204-1.637-0.18-3.388-0.789-4.871
		c-1.872-4.562-9.468-4.444-11.811-0.623C28.33,30.2,27.942,33,28.784,35.938c0.71,2.477,2.395,4.044,4.848,4.724
		c2.208,0.611,4.419,0.376,6.617-0.185c0.716-0.183,0.979-0.57,0.949-1.275C41.167,38.477,41.191,37.748,41.191,37.048z"/>
	<path fill-rule="evenodd" clip-rule="evenodd" d="M17.54,24.47c0.119,0.225,0.27,0.433,0.343,0.665
		c0.63,1.998,1.252,3.996,1.864,5.998c0.3,0.985,0.198,1.111-0.813,1.113c-1.031,0.001-2.062-0.009-3.093,0.001
		c-0.551,0.006-0.849-0.199-0.67-0.78c0.702-2.287,1.417-4.569,2.133-6.851C17.318,24.57,17.407,24.55,17.54,24.47z"/>
	<path fill-rule="evenodd" clip-rule="evenodd" d="M35.735,30.857c-0.766,0-1.53-0.004-2.295,0.001
		c-0.554,0.003-0.784-0.211-0.66-0.802c0.263-1.248,1.538-2.208,2.965-2.185c1.322,0.02,2.607,1.062,2.816,2.261
		c0.092,0.525-0.109,0.75-0.629,0.744c-0.732-0.009-1.465-0.002-2.196-0.002C35.735,30.868,35.735,30.862,35.735,30.857z"/>
</g>
</svg>
