<?xml version="1.0" encoding="utf-8"?>
<!-- Generator: Adobe Illustrator 16.0.0, SVG Export Plug-In . SVG Version: 6.00 Build 0)  -->
<!DOCTYPE svg PUBLIC "-//W3C//DTD SVG 1.1//EN" "http://www.w3.org/Graphics/SVG/1.1/DTD/svg11.dtd">
<svg version="1.1" id="Layer_1" xmlns="http://www.w3.org/2000/svg" xmlns:xlink="http://www.w3.org/1999/xlink" x="0px" y="0px"
	 width="51.25px" height="62px" viewBox="0 0 51.25 62" enable-background="new 0 0 51.25 62" xml:space="preserve">
<g>
	<path fill-rule="evenodd" clip-rule="evenodd" d="M25.727,8.521c5.205,0,10.411-0.028,15.615,0.009
		c3.904,0.027,7.033,2.294,8.063,6.023c0.406,1.466,0.408,3.072,0.412,4.615c0.024,9.307,0.011,18.613-0.019,27.92
		c-0.015,4.746-3.598,8.45-8.333,8.472c-10.651,0.051-21.304,0.044-31.955-0.003c-4.237-0.02-7.919-3.742-7.935-7.988
		c-0.037-10.341-0.04-20.681,0-31.022c0.018-4.302,3.692-7.963,8.019-8.013C14.972,8.475,20.349,8.521,25.727,8.521z M22.087,21.947
		c-0.722,0-1.459-0.083-2.163,0.037c-0.34,0.058-0.783,0.438-0.896,0.768c-0.891,2.602-1.66,5.245-2.568,7.84
		c-1.408,4.029-2.903,8.029-4.35,12.046c-0.333,0.923-0.151,1.179,0.849,1.209c0.86,0.025,1.723-0.019,2.583,0.013
		c0.843,0.031,1.359-0.303,1.602-1.131c0.303-1.023,0.682-2.022,0.997-3.042c0.215-0.691,0.645-1.005,1.368-1.002
		c1.723,0.008,3.444,0.007,5.166-0.033c0.831-0.019,1.266,0.359,1.49,1.124c0.292,0.99,0.647,1.961,0.943,2.951
		c0.242,0.807,0.72,1.188,1.589,1.14c0.858-0.048,1.721-0.002,2.583-0.011c1.351-0.01,1.502-0.194,1.058-1.441
		c-2.112-5.937-4.216-11.876-6.371-17.798C24.863,21.58,25.64,21.961,22.087,21.947z M39.204,35.501c-0.005,0-0.009,0-0.014,0
		c0-1.964,0.002-3.927,0-5.89c-0.004-2.515-0.005-2.515-2.549-2.52c-2.139-0.005-2.188-0.005-2.207,2.087
		c-0.041,4.442-0.011,8.887-0.039,13.33c-0.005,0.966,0.379,1.398,1.351,1.352c0.757-0.035,1.517-0.028,2.272,0
		c0.88,0.034,1.22-0.325,1.201-1.23C39.172,40.255,39.204,37.878,39.204,35.501z M34.139,22.972
		c-0.016,1.572,1.184,2.833,2.691,2.826c1.456-0.006,2.647-1.224,2.685-2.743c0.035-1.451-1.192-2.723-2.658-2.755
		C35.387,20.267,34.154,21.479,34.139,22.972z"/>
	<path fill-rule="evenodd" clip-rule="evenodd" d="M22.191,27.083c0.377,1.202,0.757,2.405,1.133,3.608
		c0.255,0.821,0.483,1.651,0.765,2.463c0.216,0.622,0.056,0.931-0.615,0.931c-0.896-0.001-1.791,0.01-2.687-0.013
		c-0.609-0.016-0.892-0.325-0.704-0.95c0.605-2.002,1.215-4.005,1.822-6.008C22.001,27.105,22.097,27.094,22.191,27.083z"/>
</g>
</svg>
