<?xml version="1.0" encoding="utf-8"?>
<!-- Generator: Adobe Illustrator 16.0.0, SVG Export Plug-In . SVG Version: 6.00 Build 0)  -->
<!DOCTYPE svg PUBLIC "-//W3C//DTD SVG 1.1//EN" "http://www.w3.org/Graphics/SVG/1.1/DTD/svg11.dtd">
<svg version="1.1" id="Layer_1" xmlns="http://www.w3.org/2000/svg" xmlns:xlink="http://www.w3.org/1999/xlink" x="0px" y="0px"
	 width="51.25px" height="62px" viewBox="0 0 51.25 62" enable-background="new 0 0 51.25 62" xml:space="preserve">
<g>
	<path fill-rule="evenodd" clip-rule="evenodd" fill="#116EB6" d="M18.463,22.485c0.045-0.288,0.09-0.576,0.135-0.864
		c0.021-0.079,0.043-0.158,0.065-0.237c0.207-0.405,0.411-0.81,0.616-1.215c0.215-0.291,0.428-0.582,0.643-0.873
		c1.18-1.107,2.36-2.213,3.539-3.319c0.153-0.123,0.309-0.246,0.462-0.368c1.377-1.137,2.756-2.272,4.134-3.407
		c0.158-0.117,0.315-0.232,0.475-0.348c2.001-2.527,3.484-5.213,2.551-8.641c0.125-0.021,0.25-0.043,0.376-0.064
		c0.346,1.072,0.877,2.123,1.002,3.22c0.291,2.552-0.939,4.639-2.422,6.581c-0.376,0.493-0.831,0.926-1.25,1.388
		c-0.153,0.141-0.307,0.282-0.46,0.423c-0.129,0.137-0.26,0.273-0.391,0.409c-0.151,0.135-0.303,0.271-0.455,0.406
		c-1.213,1.083-2.44,2.149-3.631,3.255c-1.43,1.331-2.428,2.914-2.643,4.908c-0.006,0.141-0.012,0.282-0.021,0.423
		c0.321,2.051,1.267,3.809,2.535,5.416c-0.217,0.221-0.432,0.441-0.648,0.662c-1.625-1.591-3.218-3.217-4.122-5.347
		c-0.291-0.679-0.335-1.461-0.491-2.196C18.463,22.626,18.463,22.556,18.463,22.485z"/>
	<path fill-rule="evenodd" clip-rule="evenodd" fill="#116EB6" d="M31.283,18.371c-0.389,0.395-0.793,0.773-1.16,1.188
		c-1.661,1.884-1.745,3.39-0.317,5.466c0.472,0.688,0.963,1.366,1.43,2.058c0.843,1.249,0.834,2.557,0.172,3.862
		c-0.712,1.398-1.862,2.345-3.093,3.106c0.283-1.046,0.847-2.077,0.737-3.03c-0.108-0.95-0.88-1.83-1.385-2.726
		c-0.511-0.905-1.187-1.742-1.55-2.699c-0.659-1.732-0.651-3.467,0.595-5.018c0.384-0.478,0.734-0.98,1.101-1.473
		c1.207-0.292,2.078-1.025,2.714-2.065c1.381-0.685,2.764-1.37,4.145-2.053c0.047,0.264,0.096,0.527,0.144,0.79
		c-0.536,0.359-1.07,0.719-1.606,1.078C32.283,17.001,31.541,17.38,31.283,18.371z"/>
	<path fill-rule="evenodd" clip-rule="evenodd" fill="#116EB6" d="M27.273,54.481c-2.921,0.016-5.853,0.187-8.764,0.01
		c-3.572-0.218-7.131-0.701-10.688-1.126c-0.902-0.107-2.146-0.176-2.277-1.257c-0.129-1.052,1.029-1.421,1.865-1.847
		c1.602-0.814,3.284-1.238,5.126-1.092c-1.248,0.588-2.733,0.747-3.909,2.14c1.023,0.343,1.833,0.695,2.682,0.885
		c4.869,1.085,9.821,1.068,14.766,0.929c3.336-0.093,6.665-0.419,9.997-0.642c0.037,0.664-0.387,0.698-0.912,0.831
		c-0.813,0.205-1.841-0.243-2.424,0.722c-0.076,0.023-0.149,0.048-0.225,0.072c-0.607-0.64-0.967-0.584-1.258,0.197
		c-0.278,0.005-0.559,0.011-0.837,0.018c-0.497-0.518-2.512-0.609-3.048-0.125C27.302,54.253,27.302,54.384,27.273,54.481z"/>
	<path fill-rule="evenodd" clip-rule="evenodd" fill="#116EB6" d="M34.1,47.839c-2.229,0.476-4.443,1.195-6.697,1.361
		c-2.506,0.186-5.059-0.036-7.571-0.276c-1.068-0.102-2.148-0.591-3.117-1.105c-1.299-0.688-1.24-1.573,0.051-2.29
		c0.354-0.197,0.749-0.324,1.203-0.516c-0.196,0.877,0.205,1.296,0.9,1.334c2.667,0.144,5.339,0.311,8.009,0.314
		c1.309,0.001,2.614-0.359,3.928-0.514c0.282-0.033,0.61,0.065,0.877,0.185c0.792,0.355,1.563,0.75,2.342,1.13
		C34.051,47.588,34.075,47.713,34.1,47.839z"/>
	<path fill-rule="evenodd" clip-rule="evenodd" fill="#116EB6" d="M36.156,35.013c-1.802,1.558-3.993,1.793-6.117,1.945
		c-4.23,0.304-8.477,0.496-12.718,0.482c-2.13-0.008-4.261-0.534-6.378-0.911c-0.395-0.07-0.72-0.541-1.078-0.826
		c0.335-0.323,0.616-0.817,1.01-0.941c2.111-0.661,4.247-1.232,6.379-1.821c0.151-0.042,0.331,0.02,0.785,0.056
		c-1.618,0.679-2.995,1.257-4.37,1.834c0.017,0.187,0.033,0.375,0.047,0.563c0.834,0.211,1.657,0.538,2.502,0.613
		c4.983,0.443,9.954,0.152,14.913-0.399C32.807,35.422,34.48,35.212,36.156,35.013z"/>
	<path fill-rule="evenodd" clip-rule="evenodd" fill="#116EB6" d="M16.634,38.981c-0.315,1.378-0.043,1.803,1.011,1.944
		c3.526,0.469,7.058,0.617,10.597,0.122c1.34-0.188,2.684-0.555,4.018-0.519c0.906,0.025,1.798,0.613,2.698,0.948
		c-0.019,0.146-0.037,0.292-0.055,0.437c-2.068,0.379-4.124,0.858-6.207,1.115c-3.989,0.492-7.986,0.615-11.926-0.407
		c-0.696-0.18-1.399-0.45-2.007-0.828c-0.767-0.476-0.757-1.138-0.031-1.677C15.247,39.735,15.834,39.452,16.634,38.981z"/>
	<path fill-rule="evenodd" clip-rule="evenodd" fill="#116EB6" d="M26.228,56.406c2.117-0.144,4.239-0.232,6.348-0.443
		c3.678-0.367,7.332-0.907,10.787-2.308c0.765-0.31,1.464-0.775,2.272-1.211c-0.21,1.05-0.959,1.588-1.761,2.024
		c-2.494,1.352-5.229,1.979-8.007,2.172c-4.513,0.312-9.042,0.433-13.565,0.538c-1.55,0.036-3.109-0.219-4.664-0.341
		c0.065-0.196,0.133-0.393,0.201-0.589c2.451,0.072,4.901,0.144,7.35,0.216C25.537,56.445,25.882,56.426,26.228,56.406z"/>
	<path fill-rule="evenodd" clip-rule="evenodd" fill="#116EB6" d="M37.575,42.516c1.8-1.063,3.568-2.122,4.854-3.813
		c0.961-1.264,1.403-2.593,0.593-4.06c-0.759-1.372-2.054-1.777-3.549-1.693c-0.253,0.014-0.511,0.002-0.763-0.073
		c1.915-0.962,3.784-0.915,5.543,0.341c1.666,1.188,1.941,3.543,0.657,5.302c-1.698,2.325-4.188,3.347-6.831,4.104
		c-0.098,0.028-0.21,0.016-0.313,0.001C37.712,42.62,37.664,42.569,37.575,42.516z"/>
	<path fill-rule="evenodd" clip-rule="evenodd" fill="#116EB6" d="M37.741,52.219c1.233-0.335,2.477-0.639,3.696-1.02
		c0.741-0.23,1.31-0.677,1.099-1.638c1.058,0.623,1.185,1.175,0.217,1.658c-1.528,0.763-3.191,1.256-4.797,1.863
		C37.884,52.795,37.813,52.507,37.741,52.219z"/>
	<path fill-rule="evenodd" clip-rule="evenodd" fill="#116EB6" d="M32.735,54.033c0.583-0.965,1.612-0.518,2.424-0.722
		c0.525-0.133,0.949-0.167,0.912-0.831c0.348-0.028,0.698-0.057,1.045-0.086c0,0.297,0.002,0.592,0.002,0.888
		C35.657,53.533,34.196,53.783,32.735,54.033z"/>
	<path fill-rule="evenodd" clip-rule="evenodd" fill="#116EB6" d="M23.076,30.239c0.217-0.221,0.432-0.441,0.648-0.662
		c0.479,0.676,0.972,1.344,1.432,2.035c0.127,0.19,0.157,0.445,0.333,0.974C24.541,31.663,23.808,30.951,23.076,30.239z"/>
	<path fill-rule="evenodd" clip-rule="evenodd" fill="#116EB6" d="M27.273,54.481c0.029-0.097,0.029-0.229,0.094-0.287
		c0.536-0.484,2.551-0.393,3.048,0.125C29.368,54.374,28.321,54.427,27.273,54.481z"/>
	<path fill-rule="evenodd" clip-rule="evenodd" fill="#116EB6" d="M34.814,15.778c-0.047-0.263-0.096-0.526-0.144-0.79
		c0.708-0.248,1.414-0.496,2.122-0.743c0.051,0.097,0.1,0.193,0.151,0.289C36.233,14.949,35.523,15.364,34.814,15.778z"/>
	<path fill-rule="evenodd" clip-rule="evenodd" fill="#116EB6" d="M30.526,17.042c-0.636,1.04-1.507,1.773-2.714,2.065
		C28.716,18.418,29.622,17.729,30.526,17.042z"/>
	<path fill-rule="evenodd" clip-rule="evenodd" fill="#116EB6" d="M15.971,56.577c-0.632-0.12-1.264-0.239-1.895-0.359
		c0.01-0.095,0.021-0.19,0.031-0.286c0.626,0.046,1.252,0.092,1.878,0.138C15.979,56.24,15.975,56.408,15.971,56.577z"/>
	<path fill-rule="evenodd" clip-rule="evenodd" fill="#116EB6" d="M31.283,18.371c0.258-0.991,1-1.37,1.925-1.515
		C32.565,17.361,31.923,17.867,31.283,18.371z"/>
	<path fill-rule="evenodd" clip-rule="evenodd" fill="#116EB6" d="M17.839,56.249c-0.067,0.196-0.135,0.393-0.201,0.589
		c-0.354-0.056-0.706-0.111-1.06-0.167c0.012-0.183,0.026-0.365,0.039-0.548C17.024,56.165,17.432,56.207,17.839,56.249z"/>
	<path fill-rule="evenodd" clip-rule="evenodd" fill="#116EB6" d="M37.119,53.283c0-0.296-0.002-0.591-0.002-0.888
		c0.208-0.058,0.417-0.117,0.624-0.176c0.071,0.289,0.143,0.576,0.215,0.864C37.678,53.149,37.397,53.216,37.119,53.283z"/>
	<path fill-rule="evenodd" clip-rule="evenodd" fill="#116EB6" d="M31.252,54.302c0.291-0.781,0.65-0.837,1.258-0.197
		C32.091,54.17,31.671,54.236,31.252,54.302z"/>
	<path fill-rule="evenodd" clip-rule="evenodd" fill="#116EB6" d="M19.921,19.295c-0.215,0.291-0.428,0.582-0.643,0.873
		C19.494,19.877,19.707,19.586,19.921,19.295z"/>
	<path fill-rule="evenodd" clip-rule="evenodd" fill="#116EB6" d="M26.228,56.406c-0.346,0.02-0.691,0.039-1.039,0.059
		C25.537,56.445,25.882,56.426,26.228,56.406z"/>
	<path fill-rule="evenodd" clip-rule="evenodd" fill="#116EB6" d="M16.618,56.123c-0.013,0.183-0.027,0.365-0.039,0.548
		c-0.203-0.032-0.405-0.063-0.607-0.094c0.004-0.169,0.008-0.337,0.014-0.506C16.196,56.088,16.407,56.105,16.618,56.123z"/>
	<path fill-rule="evenodd" clip-rule="evenodd" fill="#116EB6" d="M28.531,11.853c-0.159,0.116-0.317,0.231-0.475,0.348
		C28.214,12.083,28.372,11.968,28.531,11.853z"/>
	<path fill-rule="evenodd" clip-rule="evenodd" fill="#116EB6" d="M28.329,14.759c0.153-0.141,0.307-0.282,0.46-0.423
		C28.636,14.477,28.482,14.618,28.329,14.759z"/>
	<path fill-rule="evenodd" clip-rule="evenodd" fill="#116EB6" d="M27.484,15.575c0.152-0.135,0.303-0.271,0.455-0.406
		C27.787,15.304,27.636,15.439,27.484,15.575z"/>
	<path fill-rule="evenodd" clip-rule="evenodd" fill="#116EB6" d="M23.922,15.607c-0.153,0.123-0.309,0.245-0.462,0.368
		C23.614,15.853,23.769,15.73,23.922,15.607z"/>
	<path fill-rule="evenodd" clip-rule="evenodd" fill="#116EB6" d="M21.189,24.161c0.008-0.141,0.015-0.282,0.021-0.423
		C21.204,23.879,21.198,24.02,21.189,24.161z"/>
	<path fill-rule="evenodd" clip-rule="evenodd" fill="#116EB6" d="M18.663,21.383c-0.022,0.08-0.045,0.159-0.065,0.237
		C18.618,21.542,18.643,21.462,18.663,21.383z"/>
	<path fill-rule="evenodd" clip-rule="evenodd" fill="#116EB6" d="M18.463,22.485c0,0.071,0,0.141,0,0.212
		C18.463,22.626,18.463,22.556,18.463,22.485z"/>
</g>
</svg>
